<svg width="26" height="21" viewBox="0 0 26 21" fill="none" xmlns="http://www.w3.org/2000/svg">
<path d="M0 3.83333C0 1.99238 1.49238 0.5 3.33333 0.5H22.6667C24.5076 0.5 26 1.99238 26 3.83333V17.1667C26 19.0076 24.5076 20.5 22.6667 20.5H3.33333C1.49239 20.5 0 19.0076 0 17.1667V3.83333Z" fill="#1F72CD"/>
<path fill-rule="evenodd" clip-rule="evenodd" d="M4.66015 7.58325L2.22754 13.6222H5.13972L5.50074 12.6593H6.32597L6.68699 13.6222H9.89249V12.8873L10.1781 13.6222H11.8362L12.1219 12.8718V13.6222H18.7884L19.599 12.6843L20.3581 13.6222L23.7822 13.63L21.3419 10.6196L23.7822 7.58325H20.4112L19.6221 8.50378L18.887 7.58325H11.6346L11.0119 9.14196L10.3745 7.58325H7.4684V8.29313L7.14511 7.58325H4.66015ZM5.22334 8.4408H6.64287L8.25642 12.5358V8.4408H9.81146L11.0577 11.3769L12.2063 8.4408H13.7536V12.7741H12.8121L12.8044 9.37856L11.4319 12.7741H10.5897L9.20939 9.37856V12.7741H7.27255L6.90536 11.8027H4.92158L4.55515 12.7733H3.51742L5.22334 8.4408ZM18.4435 8.4408H14.6152V12.7716H18.3842L19.599 11.3363L20.7699 12.7716H21.9939L20.2148 10.6187L21.9939 8.4408H20.823L19.6144 9.85961L18.4435 8.4408ZM5.91416 9.17393L5.26058 10.9045H6.56697L5.91416 9.17393ZM15.5609 10.1291V9.33806V9.3373H17.9496L18.9919 10.6024L17.9034 11.8744H15.5609V11.0108H17.6493V10.1291H15.5609Z" fill="white"/>
</svg>
