<svg width="20" height="10" viewBox="0 0 20 10" fill="none" xmlns="http://www.w3.org/2000/svg">
<path fill-rule="evenodd" clip-rule="evenodd" d="M4.22553 1.45263C4.0073 1.74588 3.65812 1.97717 3.30895 1.94413C3.2653 1.54763 3.43625 1.12634 3.6363 0.866136C3.85453 0.564627 4.23644 0.349854 4.54561 0.333333C4.58198 0.746358 4.44013 1.15112 4.22553 1.45263ZM4.54199 2.02259C4.23437 2.00249 3.95369 2.12765 3.72697 2.22874C3.58107 2.29379 3.45752 2.34888 3.36353 2.34888C3.25805 2.34888 3.1294 2.29085 2.98495 2.22569C2.79568 2.1403 2.5793 2.04269 2.35238 2.04737C1.83226 2.05564 1.34851 2.39019 1.08299 2.92299C0.537405 3.98859 0.941137 5.56635 1.46853 6.4337C1.72678 6.86324 2.03594 7.33409 2.44331 7.31757C2.62253 7.30989 2.75145 7.24777 2.88486 7.18349C3.03847 7.10947 3.19803 7.03258 3.44718 7.03258C3.6877 7.03258 3.84028 7.10747 3.98676 7.17935C4.12603 7.2477 4.25978 7.31334 4.45833 7.30931C4.88025 7.30105 5.14576 6.87977 5.40401 6.45022C5.6827 5.9892 5.80516 5.53926 5.82375 5.47099L5.82592 5.46309C5.82548 5.46258 5.82204 5.46079 5.81596 5.45764C5.7228 5.40921 5.01074 5.03904 5.00391 4.04642C4.99706 3.21325 5.5687 2.79112 5.65869 2.72467C5.66416 2.72062 5.66786 2.7179 5.66952 2.71648C5.3058 2.1052 4.7384 2.03911 4.54199 2.02259ZM7.46305 7.26393V0.82487H9.59083C10.6893 0.82487 11.4567 1.68396 11.4567 2.93956C11.4567 4.19515 10.6747 5.0625 9.56173 5.0625H8.34326V7.26393H7.46305ZM8.34277 1.66736H9.35756C10.1214 1.66736 10.5578 2.12995 10.5578 2.9436C10.5578 3.75726 10.1214 4.22398 9.35392 4.22398H8.34277V1.66736ZM14.3624 6.49151C14.1296 6.9954 13.6168 7.31343 13.0639 7.31343C12.2455 7.31343 11.6745 6.75997 11.6745 5.92566C11.6745 5.09961 12.2273 4.62463 13.2494 4.55442L14.3478 4.48008V4.12487C14.3478 3.60033 14.0459 3.31535 13.5076 3.31535C13.0639 3.31535 12.7402 3.57555 12.6747 3.97206H11.8818C11.9073 3.13775 12.5983 2.5306 13.5331 2.5306C14.5406 2.5306 15.1953 3.12948 15.1953 4.05879V7.26386H14.3806V6.49151H14.3624ZM13.3005 6.5494C12.8313 6.5494 12.533 6.29333 12.533 5.90096C12.533 5.49619 12.8204 5.26077 13.3696 5.2236L14.348 5.15338V5.51684C14.348 6.11986 13.897 6.5494 13.3005 6.5494ZM17.8982 7.51581C17.5453 8.64336 17.1416 9.01509 16.2832 9.01509C16.2178 9.01509 15.9995 9.00683 15.9486 8.9903V8.21795C16.0032 8.22621 16.1377 8.23447 16.2068 8.23447C16.596 8.23447 16.8143 8.04861 16.9488 7.56537L17.0289 7.28038L15.5376 2.59255H16.4578L17.4944 6.39651H17.5126L18.5492 2.59255H19.444L17.8982 7.51581Z" fill="black"/>
</svg>
