<svg width="335" height="320" viewBox="0 0 335 320" fill="none" xmlns="http://www.w3.org/2000/svg">
<rect width="335" height="320" fill="#EEEEEE"/>
<path d="M217 87.0835H117C96.85 87.0835 85.75 98.1835 85.75 118.333V201.667C85.75 221.817 96.85 232.917 117 232.917H217C237.15 232.917 248.25 221.817 248.25 201.667V118.333C248.25 98.1835 237.15 87.0835 217 87.0835ZM117 99.5835H217C230.142 99.5835 235.75 105.192 235.75 118.333V178.75L197.916 140.917C194.666 137.667 189.334 137.667 186.084 140.917L144.916 182.083C143.333 183.666 140.667 183.666 139.084 182.083L131.25 174.25C128 171 122.667 171 119.417 174.25L98.25 195.417V118.333C98.25 105.192 103.858 99.5835 117 99.5835ZM123.25 135C123.25 129.25 127.867 124.583 133.609 124.583H133.692C139.434 124.583 144.091 129.25 144.091 135C144.091 140.75 139.442 145.417 133.692 145.417C127.95 145.417 123.25 140.75 123.25 135Z" fill="#A1A1A1"/>
</svg>
