<svg width="26" height="21" viewBox="0 0 26 21" fill="none" xmlns="http://www.w3.org/2000/svg">
<path d="M3.33301 0.916992H22.667C24.2776 0.917168 25.5828 2.22244 25.583 3.83301V17.167C25.5828 18.7776 24.2776 20.0828 22.667 20.083H3.33301C1.72244 20.0828 0.417168 18.7776 0.416992 17.167V3.83301C0.417168 2.22244 1.72244 0.917168 3.33301 0.916992Z" fill="white"/>
<path d="M3.33301 0.916992H22.667C24.2776 0.917168 25.5828 2.22244 25.583 3.83301V17.167C25.5828 18.7776 24.2776 20.0828 22.667 20.083H3.33301C1.72244 20.0828 0.417168 18.7776 0.416992 17.167V3.83301C0.417168 2.22244 1.72244 0.917168 3.33301 0.916992Z" stroke="#E9EAEB" stroke-width="0.833333"/>
<path d="M16.7158 7.94995C17.6367 7.94995 18.5055 8.881 18.5107 10.5886C18.5107 12.455 17.6528 13.3025 16.7109 13.3025C16.2479 13.3025 15.9687 13.0855 15.7793 12.9324L15.7744 14.5984L14.459 14.9109V8.04468H15.6162L15.6846 8.40991C15.8687 8.22153 16.2004 7.95008 16.7158 7.94995ZM5.49316 7.94995C5.92975 7.95 6.36126 8.02718 6.79785 8.22144V9.60522C6.39809 9.36389 5.893 9.22837 5.49316 9.22827C5.21446 9.22827 5.04612 9.31634 5.0459 9.54565C5.0459 10.2051 7.05036 9.89353 7.05566 11.6482C7.05566 12.7021 6.30325 13.3082 5.20898 13.3083C4.75659 13.3083 4.26169 13.2088 3.77246 12.9734V11.572C4.2144 11.8428 4.77238 12.0427 5.20898 12.0427C5.50344 12.0426 5.71387 11.9541 5.71387 11.6833C5.71342 10.9829 3.71401 11.2418 3.71387 9.61694C3.71387 8.5747 4.42499 7.94995 5.49316 7.94995ZM8.59766 8.05054H9.59766V9.30444H8.59766V11.3953C8.59779 12.2665 9.42929 11.9952 9.59766 11.9187V13.114C9.42405 13.22 9.10809 13.3083 8.67676 13.3083C7.89805 13.3083 7.31356 12.667 7.31348 11.7957L7.31934 7.07886L8.60254 6.77222L8.59766 8.05054ZM20.7568 7.94995C22.0039 7.94995 22.6562 9.13982 22.6562 10.6472C22.6562 10.7885 22.6465 11.0951 22.6465 11.1716H20.0732C20.1312 11.8661 20.5835 12.0661 21.0938 12.0662C21.6145 12.0662 22.0251 11.943 22.3828 11.7429V12.9207C22.0251 13.1443 21.5516 13.3024 20.9258 13.3025C19.6419 13.3025 18.7471 12.4079 18.7471 10.6355C18.7471 9.13997 19.5047 7.95013 20.7568 7.94995ZM11.2334 8.48608C11.5438 7.85022 12.1596 7.97987 12.3281 8.05054V9.40503C12.165 9.34026 11.6386 9.2573 11.3281 9.71069V13.2029H10.0127V8.05054H11.1494L11.2334 8.48608ZM13.9697 13.2029H12.6494V8.05054H13.9697V13.2029ZM16.4004 9.25757C16.1005 9.25757 15.9102 9.37495 15.7734 9.54565L15.7793 11.7302C15.9056 11.8833 16.0899 12.0076 16.4004 12.0076C16.8842 12.0072 17.2099 11.4184 17.21 10.6296C17.21 9.85851 16.879 9.25795 16.4004 9.25757ZM20.752 9.14624C20.4205 9.14624 20.0577 9.42245 20.0576 10.0876H21.415C21.4149 9.42251 21.0729 9.14629 20.752 9.14624ZM13.9697 7.28491L12.6494 7.60327V6.4021L13.9697 6.0896V7.28491Z" fill="#6461FC"/>
</svg>
