<svg width="19" height="7" viewBox="0 0 19 7" fill="none" xmlns="http://www.w3.org/2000/svg">
<path fill-rule="evenodd" clip-rule="evenodd" d="M5.22109 6.71523H3.64599L2.46486 1.66034C2.4088 1.42781 2.28977 1.22225 2.11467 1.12536C1.6777 0.881885 1.19619 0.688114 0.670898 0.590386V0.395772H3.20825C3.55845 0.395772 3.82109 0.688114 3.86486 1.02763L4.4777 4.6739L6.05203 0.395772H7.58335L5.22109 6.71523ZM8.4589 6.71523H6.97135L8.19626 0.395772H9.68381L8.4589 6.71523ZM11.6081 2.14643C11.6518 1.80607 11.9145 1.61145 12.2209 1.61145C12.7024 1.56259 13.2269 1.66032 13.6647 1.90295L13.9273 0.542341C13.4896 0.347728 13.0081 0.25 12.5711 0.25C11.1273 0.25 10.0767 1.12534 10.0767 2.3402C10.0767 3.2644 10.8209 3.74967 11.3462 4.04201C11.9145 4.33351 12.1334 4.52813 12.0896 4.81962C12.0896 5.25687 11.6518 5.45149 11.2149 5.45149C10.6896 5.45149 10.1643 5.30574 9.68354 5.06226L9.4209 6.42371C9.94619 6.66635 10.5145 6.76407 11.0398 6.76407C12.6586 6.8121 13.6647 5.9376 13.6647 4.62501C13.6647 2.97206 11.6081 2.87518 11.6081 2.14643V2.14643ZM18.8707 6.71523L17.6896 0.395772H16.4209C16.1583 0.395772 15.8956 0.590386 15.8081 0.881885L13.6209 6.71523H15.1523L15.4579 5.79187H17.3394L17.5145 6.71523H18.8707ZM16.6403 2.09753L17.0773 4.47923H15.8524L16.6403 2.09753Z" fill="#172B85"/>
</svg>
